<svg width="36" height="36" viewBox="0 0 36 36" fill="none" xmlns="http://www.w3.org/2000/svg">
<circle cx="18" cy="18" r="18" fill="url(#paint0_linear)"/>
<path fill-rule="evenodd" clip-rule="evenodd" d="M12.1434 8.27565C12.257 8.31429 12.4322 8.40449 12.5328 8.46894C13.1492 8.8749 14.8657 11.056 15.4271 12.145C15.7483 12.7668 15.8553 13.2275 15.7548 13.569C15.6509 13.9363 15.4789 14.1297 14.71 14.745C14.4017 14.993 14.1129 15.2476 14.0675 15.3153C13.9507 15.4828 13.8566 15.8114 13.8566 16.0434C13.8599 16.5814 14.2103 17.5577 14.671 18.3083C15.0279 18.8914 15.6671 19.6389 16.2999 20.2124C17.0429 20.889 17.6983 21.3497 18.4381 21.7138C19.3888 22.1841 19.9696 22.3034 20.3947 22.1068C20.5018 22.0585 20.6153 21.9941 20.651 21.9651C20.6834 21.9361 20.9333 21.6332 21.2059 21.2982C21.7315 20.6409 21.8515 20.5346 22.2117 20.4122C22.6692 20.2575 23.1365 20.2994 23.6069 20.5378C23.9639 20.7215 24.7426 21.2015 25.2455 21.5494C25.9074 22.0102 27.3221 23.1572 27.5136 23.3859C27.851 23.7983 27.9094 24.3266 27.6823 24.9098C27.4421 25.5251 26.5077 26.6786 25.8555 27.1715C25.2649 27.6161 24.8464 27.7868 24.2948 27.8126C23.8406 27.8352 23.6524 27.7965 23.0715 27.5581C18.516 25.6927 14.8787 22.9091 11.9909 19.0848C10.4821 17.0873 9.33346 15.0156 8.54822 12.8667C8.09075 11.6134 8.06805 11.0689 8.44439 10.4278C8.60666 10.1572 9.29777 9.48704 9.8007 9.11333C10.6379 8.49473 11.024 8.26597 11.3322 8.20155C11.5431 8.15643 11.9097 8.19187 12.1434 8.27565Z" fill="white"/>
<defs>
<linearGradient id="paint0_linear" x1="18" y1="-5.94283e-09" x2="18.0997" y2="33.1738" gradientUnits="userSpaceOnUse">
<stop stop-color="#8AD336"/>
<stop offset="1" stop-color="#509600"/>
</linearGradient>
</defs>
</svg>
