<svg width="24" height="24" viewBox="0 0 24 24" fill="none" xmlns="http://www.w3.org/2000/svg">
<path d="M12 1.71429C7.74632 1.71429 4.28571 4.91717 4.28571 8.85402C4.28571 13.7398 11.1892 20.9124 11.4832 21.2153C11.7592 21.4999 12.2413 21.4994 12.5168 21.2153C12.8108 20.9124 19.7143 13.7398 19.7143 8.85402C19.7142 4.91717 16.2536 1.71429 12 1.71429ZM12 12.4462C9.85987 12.4462 8.11879 10.8348 8.11879 8.85402C8.11879 6.87327 9.85991 5.26186 12 5.26186C14.1401 5.26186 15.8812 6.87331 15.8812 8.85406C15.8812 10.8348 14.1401 12.4462 12 12.4462Z" fill="url(#paint0_linear)"/>
<defs>
<linearGradient id="paint0_linear" x1="12" y1="1.71429" x2="12" y2="21.4286" gradientUnits="userSpaceOnUse">
<stop stop-color="#07D8F8"/>
<stop offset="1" stop-color="#00A0D2"/>
</linearGradient>
</defs>
</svg>
