<svg width="24" height="24" viewBox="0 0 24 24" fill="none" xmlns="http://www.w3.org/2000/svg">
<path fill-rule="evenodd" clip-rule="evenodd" d="M5.86449 1.81258C5.98348 1.85306 6.16703 1.94755 6.27242 2.01507C6.91823 2.44036 8.71641 4.72535 9.30454 5.8662C9.64102 6.5176 9.75314 7.00026 9.64786 7.35804C9.53902 7.74282 9.35889 7.94534 8.55329 8.59001C8.23034 8.84986 7.9278 9.11651 7.88025 9.18742C7.75786 9.36296 7.65925 9.70718 7.65925 9.95024C7.6627 10.5139 8.02979 11.5366 8.51248 12.323C8.88636 12.9339 9.55598 13.7169 10.2189 14.3178C10.9973 15.0266 11.6839 15.5092 12.459 15.8906C13.4549 16.3834 14.0634 16.5083 14.5087 16.3024C14.6209 16.2518 14.7398 16.1842 14.7772 16.1539C14.8112 16.1235 15.073 15.8062 15.3585 15.4552C15.9091 14.7666 16.0349 14.6553 16.4122 14.527C16.8916 14.365 17.3811 14.4089 17.8739 14.6587C18.2478 14.8511 19.0636 15.354 19.5905 15.7185C20.2839 16.2011 21.766 17.4027 21.9666 17.6424C22.32 18.0744 22.3813 18.6279 22.1433 19.2389C21.8917 19.8835 20.9128 21.0918 20.2296 21.6082C19.6109 22.074 19.1724 22.2528 18.5946 22.2799C18.1187 22.3035 17.9215 22.263 17.313 22.0133C12.5406 20.059 8.73001 17.1429 5.70471 13.1364C4.1241 11.0438 2.92076 8.87352 2.09812 6.62226C1.61887 5.30931 1.59509 4.73889 1.98935 4.06722C2.15934 3.78372 2.88337 3.08166 3.41024 2.69015C4.28727 2.04209 4.69175 1.80244 5.01468 1.73495C5.23562 1.68769 5.61971 1.72481 5.86449 1.81258Z" fill="url(#paint0_linear)"/>
<defs>
<linearGradient id="paint0_linear" x1="12" y1="1.71429" x2="12.057" y2="20.6708" gradientUnits="userSpaceOnUse">
<stop stop-color="#8AD336"/>
<stop offset="1" stop-color="#509600"/>
</linearGradient>
</defs>
</svg>
