<?xml version="1.0" encoding="utf-8"?>
<!-- Generator: Adobe Illustrator 19.0.0, SVG Export Plug-In . SVG Version: 6.00 Build 0)  -->
<svg version="1.1" id="Layer_1" xmlns="http://www.w3.org/2000/svg" xmlns:xlink="http://www.w3.org/1999/xlink" x="0px" y="0px"
	 viewBox="-191 280.3 36 36" style="enable-background:new -191 280.3 36 36;" xml:space="preserve">
<style type="text/css">
	.st0{fill:url(#SVGID_1_);}
	.st1{opacity:0.24;fill:#FFFFFF;enable-background:new    ;}
	.st2{fill:#FFFFFF;}
</style>
<linearGradient id="SVGID_1_" gradientUnits="userSpaceOnUse" x1="-173" y1="317.56" x2="-173" y2="281.56" gradientTransform="matrix(1 0 0 -1 0 597.84)">
	<stop  offset="0" style="stop-color:#3A8BFF"/>
	<stop  offset="1" style="stop-color:#035ADA"/>
</linearGradient>
<circle class="st0" cx="-173" cy="298.3" r="18"/>
<path class="st1" d="M-166.1,289.3H-180c-1.4,0-2.6,1.2-2.6,2.6v13c0,1.4,1.2,2.6,2.6,2.6h13.9c1.4,0,2.6-1.2,2.6-2.6v-13
	C-163.5,290.5-164.6,289.3-166.1,289.3z M-180,289.1c-1.6,0-2.9,1.3-2.9,2.9v13c0,1.6,1.3,2.9,2.9,2.9h13.9c1.6,0,2.9-1.3,2.9-2.9
	v-13c0-1.6-1.3-2.9-2.9-2.9H-180z"/>
<path class="st2" d="M-163.2,302.5c-0.1,0-0.2,0-0.3,0.1c-0.3,0.2-0.6,0.4-1,0.7c-0.6,0.5-1.3,1-2,1.3c-2.8,0.9-5.3,1-7.9,0.3
	c-0.2,0-0.2,0-0.3,0c-0.1,0-0.2,0-0.3,0l-0.1,0c-0.3,0-0.6,0-1.1,0.3c-1.1,0.3-2.5,0.4-3.2,0.3c0,0,0,0,0,0c0,0-0.1-0.1,0-0.1
	c0,0,0,0,0.1,0c0,0,0.1-0.1,0.1-0.1c0.6-0.4,1.1-0.8,1.4-1.3c0.5-0.6,0.3-0.8-0.2-1.2l0,0c-2-2.1-2.6-4.3-2.4-7.2
	c0.3-1.6,1-3,2.1-4.2c0.7-0.7,1.4-1.3,2.3-1.8c0,0,0,0,0,0c0,0,0.1,0,0.1-0.1c0,0-0.1-0.1-0.1-0.1c-0.5,0-1,0-1.4,0
	c-0.9,0-1.9,0-2.8,0c-1.4,0-2.6,1-2.6,2.7c0,3,0,6,0,8.9v4.5c0,1.4,1.1,2.5,2.4,2.6c0.8,0,1.6,0,2.4,0c0.4,0,0.8,0,1.1,0
	c0.1,0,0.2,0,0.3,0h7.7c1,0,2,0,3.1,0h0c1.4,0,2.6-1.2,2.6-2.6v-2.6C-163.2,302.6-163.2,302.5-163.2,302.5z M-177.1,307.5
	L-177.1,307.5C-177.1,307.5-177.1,307.5-177.1,307.5C-177.1,307.5-177.1,307.5-177.1,307.5z M-174.3,298.2c-0.4,0-0.8,0-1.2,0h-0.7
	c0.1-0.1,0.1-0.1,0.2-0.2c0.6-0.7,1.1-1.4,1.7-2.1c0.2-0.2,0.3-0.4,0.4-0.7c0.1-0.3,0-0.6-0.3-0.6c-0.1,0-0.3-0.1-0.4,0
	c-0.8,0-1.5,0-2.3,0c-0.1,0-0.2,0-0.3,0c-0.2,0-0.3,0.2-0.3,0.3c0,0.2,0.1,0.5,0.3,0.5c0.1,0,0.2,0,0.3,0c0.2,0,0.5,0,0.7,0h0.7
	c0,0,0.1,0,0.1,0c0,0-0.1,0.1-0.1,0.1c-0.7,0.8-1.3,1.7-2,2.5c-0.2,0.2-0.3,0.4-0.1,0.7s0.4,0.3,0.6,0.3c0.1,0,0.3,0,0.4,0h0.7
	c0.5,0,1,0,1.6,0c0.4,0,0.6-0.2,0.5-0.6C-173.8,298.3-174,298.2-174.3,298.2z M-170.8,295.6c-0.2,0-0.3,0.2-0.4,0.3
	c-0.5-0.5-1.1-0.5-1.7-0.1c-0.7,0.4-1,1.1-0.9,1.9c0.1,0.7,0.4,1.3,1.2,1.6c0.5,0.2,0.9,0.1,1.3-0.2c0.1-0.1,0.1-0.1,0.2,0
	c0.1,0.2,0.4,0.3,0.6,0.2c0.2-0.1,0.3-0.3,0.3-0.5c0-0.9,0-1.7,0-2.6C-170.2,295.8-170.5,295.6-170.8,295.6z M-171.4,298
	c0,0-0.1,0.1-0.1,0.1c-0.1,0.1-0.3,0.1-0.4,0.1c-0.1,0-0.3-0.1-0.4-0.1c0,0-0.1-0.1-0.1-0.1c-0.1-0.1-0.2-0.3-0.2-0.5
	c0-0.6,0.3-1,0.8-0.9c0.1,0,0.1,0,0.2,0c0.1,0,0.3,0.1,0.3,0.2C-171.2,297.2-171.2,297.7-171.4,298z M-166.5,295.6
	c-1,0-1.8,0.9-1.7,2c0,1.1,0.9,1.9,2,1.8c1-0.1,1.7-0.9,1.7-2C-164.7,296.3-165.5,295.5-166.5,295.6z M-165.9,298L-165.9,298
	c-0.1,0.1-0.2,0.2-0.3,0.2c-0.1,0.1-0.3,0.1-0.5,0c-0.1,0-0.1-0.1-0.2-0.1c0,0-0.1-0.1-0.1-0.1h0c-0.1-0.2-0.2-0.4-0.2-0.6v0
	c0-0.5,0.3-0.8,0.7-0.8h0.1c0.2,0,0.4,0.1,0.5,0.3c0,0,0,0,0,0.1c0.1,0.2,0.1,0.3,0.1,0.5C-165.7,297.6-165.8,297.9-165.9,298z
	 M-169.2,294.1c-0.3,0-0.5,0.2-0.5,0.5v4c0,0.3,0.2,0.5,0.4,0.5c0.1,0,0.1,0,0.2,0c0.3,0,0.5-0.3,0.5-0.6v-4
	C-168.6,294.3-168.9,294.1-169.2,294.1z"/>
</svg>
